<svg xmlns="http://www.w3.org/2000/svg" xmlns:xlink="http://www.w3.org/1999/xlink" xml:space="preserve" version="1.1" style="shape-rendering:geometricPrecision;text-rendering:geometricPrecision;image-rendering:optimizeQuality;" viewBox="0 0 298 372.5" x="0px" y="0px" fill-rule="evenodd" clip-rule="evenodd"><defs><style type="text/css">
   
    .fil0 {fill:black;fill-rule:nonzero}
   
  </style></defs><g><polygon class="fil0" points="159,109 159,232 139,232 139,109 "/><polygon class="fil0" points="159,86 139,86 139,66 159,66 "/><path class="fil0" d="M265 92c-2,-5 0,-11 5,-13 5,-3 11,-1 13,4 10,21 15,43 15,66 0,83 -66,149 -149,149 -82,0 -149,-66 -149,-149 0,-82 67,-149 149,-149 45,0 87,20 116,55 3,4 3,10 -2,14 -4,3 -10,3 -14,-1 -24,-31 -61,-48 -100,-48 -71,0 -129,58 -129,129 0,72 58,129 129,129 72,0 129,-57 129,-129 0,-20 -4,-39 -13,-57z"/></g><text x="0" y="313" fill="#000000" font-size="5px" font-weight="bold" font-family="'Helvetica Neue', Helvetica, Arial-Unicode, Arial, Sans-serif">Created by Humantech</text><text x="0" y="318" fill="#000000" font-size="5px" font-weight="bold" font-family="'Helvetica Neue', Helvetica, Arial-Unicode, Arial, Sans-serif">from the Noun Project</text></svg>