<svg xmlns:dc="http://purl.org/dc/elements/1.1/" xmlns:cc="http://creativecommons.org/ns#" xmlns:rdf="http://www.w3.org/1999/02/22-rdf-syntax-ns#" xmlns:svg="http://www.w3.org/2000/svg" xmlns="http://www.w3.org/2000/svg" xmlns:sodipodi="http://sodipodi.sourceforge.net/DTD/sodipodi-0.dtd" xmlns:inkscape="http://www.inkscape.org/namespaces/inkscape" viewBox="0 0 16.933333 21.1666675" version="1.1" x="0px" y="0px"><g transform="translate(0,-280.06665)"><path style="display:inline;opacity:1;fill:#000000;fill-opacity:1;stroke:none;stroke-width:2.11666679;stroke-linecap:butt;stroke-linejoin:round;stroke-miterlimit:4;stroke-dasharray:none;stroke-dashoffset:0;stroke-opacity:1" d="m 7.6729187,280.59583 c -0.435161,0 -0.79375,0.35859 -0.79375,0.79375 0,0.43516 0.358589,0.79375 0.79375,0.79375 v 0.85628 a 5.5562506,5.5562506 0 0 0 -2.529562,1.04799 l -0.605647,-0.60564 c 0.307681,-0.30769 0.307681,-0.81474 0,-1.12242 -0.307682,-0.30768 -0.814731,-0.30768 -1.122413,0 l -1.122412,1.12242 c -0.307681,0.30768 -0.307681,0.81473 0,1.12241 0.307682,0.30768 0.814731,0.30768 1.122412,0 l 0.606165,0.60616 a 5.5562506,5.5562506 0 0 0 -1.046964,2.52905 h -0.857829 c 0,-0.43516 -0.358589,-0.79375 -0.79375,-0.79375 -0.435161,0 -0.79375,0.35859 -0.79375,0.79375 v 1.5875 c 0,0.43516 0.358589,0.79375 0.79375,0.79375 0.435161,0 0.79375,-0.35859 0.79375,-0.79375 h 0.856278 a 5.5562506,5.5562506 0 0 0 1.047998,2.52956 l -0.605648,0.60565 c -0.307681,-0.30768 -0.81473,-0.30768 -1.122412,0 -0.307681,0.30768 -0.307681,0.81473 0,1.12241 l 1.122412,1.12241 c 0.307682,0.30768 0.814731,0.30768 1.122413,0 0.307681,-0.30768 0.307681,-0.81473 0,-1.12241 l 0.606164,-0.60617 a 5.5562506,5.5562506 0 0 0 2.529045,1.04697 v 0.85783 c -0.435161,0 -0.79375,0.35859 -0.79375,0.79375 0,0.43516 0.358589,0.79375 0.79375,0.79375 h 1.5875 c 0.435161,0 0.7937503,-0.35859 0.7937503,-0.79375 0,-0.43516 -0.3585893,-0.79375 -0.7937503,-0.79375 v -0.85628 a 5.5562506,5.5562506 0 0 0 2.5295613,-1.048 l 0.605648,0.60565 c -0.307681,0.30768 -0.307681,0.81473 0,1.12241 0.307681,0.30768 0.814731,0.30768 1.122412,0 l 1.122412,-1.12241 c 0.307681,-0.30768 0.307682,-0.81473 0,-1.12241 -0.307681,-0.30768 -0.814731,-0.30768 -1.122412,0 l -0.606165,-0.60617 a 5.5562506,5.5562506 0 0 0 1.046965,-2.52904 h 0.857829 c 0,0.43516 0.358589,0.79375 0.79375,0.79375 0.435161,0 0.79375,-0.35859 0.79375,-0.79375 v -1.5875 c 0,-0.43516 -0.358589,-0.79375 -0.79375,-0.79375 -0.435161,0 -0.79375,0.35859 -0.79375,0.79375 H 13.96039 a 5.5562506,5.5562506 0 0 0 -1.047998,-2.52956 l 0.605648,-0.60565 c 0.307681,0.30768 0.814731,0.30768 1.122412,0 0.307682,-0.30768 0.307681,-0.81473 0,-1.12241 l -1.122412,-1.12242 c -0.307681,-0.30768 -0.814731,-0.30768 -1.122412,0 -0.307681,0.30768 -0.307681,0.81473 0,1.12242 l -0.606165,0.60616 a 5.5562506,5.5562506 0 0 0 -2.5290443,-1.04696 v -0.85783 c 0.435161,0 0.7937503,-0.35859 0.7937503,-0.79375 0,-0.43516 -0.3585893,-0.79375 -0.7937503,-0.79375 z m 0.79375,3.96875 a 0.26458336,0.26458336 0 0 1 0.264583,0.26458 0.26458336,0.26458336 0 0 1 -0.264583,0.26458 0.26458336,0.26458336 0 0 1 -0.264584,-0.26458 0.26458336,0.26458336 0 0 1 0.264584,-0.26458 z m -1.851567,0.52968 c 0.873618,0 1.58595,0.71388 1.58595,1.5875 0,0.87362 -0.712332,1.58595 -1.58595,1.58595 -0.873618,0 -1.5875,-0.71233 -1.5875,-1.58595 0,-0.87362 0.713882,-1.5875 1.5875,-1.5875 z m 3.7031333,0.52917 c 0.581368,0 1.05885,0.47696 1.05885,1.05833 0,0.58137 -0.477482,1.05885 -1.05885,1.05885 -0.5813673,0 -1.0583333,-0.47748 -1.0583333,-1.05885 0,-0.58137 0.476966,-1.05833 1.0583333,-1.05833 z m -5.5557333,2.64531 a 0.26458336,0.26458336 0 0 1 0.264583,0.26459 0.26458336,0.26458336 0 0 1 -0.264583,0.26458 0.26458336,0.26458336 0 0 1 -0.264583,-0.26458 0.26458336,0.26458336 0 0 1 0.264583,-0.26459 z m 3.704167,0 a 0.26458336,0.26458336 0 0 1 0.264583,0.26459 0.26458336,0.26458336 0 0 1 -0.264583,0.26458 0.26458336,0.26458336 0 0 1 -0.264584,-0.26458 0.26458336,0.26458336 0 0 1 0.264584,-0.26459 z m 3.7041663,0 a 0.26458336,0.26458336 0 0 1 0.264584,0.26459 0.26458336,0.26458336 0 0 1 -0.264584,0.26458 0.26458336,0.26458336 0 0 1 -0.264583,-0.26458 0.26458336,0.26458336 0 0 1 0.264583,-0.26459 z m -1.8526,0.52814 c 0.873619,0 1.588017,0.7144 1.588017,1.58801 0,0.87362 -0.714398,1.58802 -1.588017,1.58802 -0.8736173,0 -1.5880163,-0.7144 -1.5880163,-1.58802 0,-0.87361 0.714399,-1.58801 1.5880163,-1.58801 z m -3.7031333,0.52968 c 0.581368,0 1.05885,0.47697 1.05885,1.05833 0,0.58137 -0.477482,1.05885 -1.05885,1.05885 -0.581367,0 -1.058333,-0.47748 -1.058333,-1.05885 0,-0.58136 0.476966,-1.05833 1.058333,-1.05833 z m 1.851567,2.64635 a 0.26458336,0.26458336 0 0 1 0.264583,0.26458 0.26458336,0.26458336 0 0 1 -0.264583,0.26459 0.26458336,0.26458336 0 0 1 -0.264584,-0.26459 0.26458336,0.26458336 0 0 1 0.264584,-0.26458 z"/></g><text x="0" y="31.933334" fill="#000000" font-size="5px" font-weight="bold" font-family="'Helvetica Neue', Helvetica, Arial-Unicode, Arial, Sans-serif">Created by Nawicon</text><text x="0" y="36.933334" fill="#000000" font-size="5px" font-weight="bold" font-family="'Helvetica Neue', Helvetica, Arial-Unicode, Arial, Sans-serif">from the Noun Project</text></svg>